<svg width="64" height="64" xmlns="http://www.w3.org/2000/svg">
 <style>.st1{fill:#ffd5b2}</style>

 <g>
  <title>background</title>
  <rect fill="none" id="canvas_background" height="621" width="1182" y="-1" x="-1"/>
 </g>
 <g>
  <title>Layer 1</title>
  <defs>
   <style>.cls-1{fill:#ab71ff}.cls-2{fill:#7542e5}.cls-3{fill:#592acb}</style>
  </defs>
  <defs>
   <style>.cls-1{fill:#9059ff}</style>
  </defs>
  <defs>
   <style>.cls-1{fill:#7542e5}.cls-2{fill:#d9bfff}</style>
   <clipPath id="svg_55">
    <path id="svg_57" d="m-13.307135,-15.693515l-33.429998,0a5.73,5.73 0 0 0 -5.720001,5.720016l0,5.179999a5.73,5.73 0 0 0 5.720001,5.720005l33.429998,0a5.74,5.74 0 0 0 5.720001,-5.720005l0,-5.179999a5.74,5.74 0 0 0 -5.720001,-5.720016z" class="cls-1"/>
   </clipPath>
   <clipPath id="svg_54">
    <path id="svg_58" d="m-16.387133,-6.633497a0.32,0.32 0 0 1 0.150002,0.459998l-0.700001,1.199998a0.31,0.31 0 0 1 -0.220001,0.150003a0.35,0.35 0 0 1 -0.259998,-0.060001l-1.450001,-1.170002l0.239998,1.940001a0.37,0.37 0 0 1 -0.079998,0.259999a0.28,0.28 0 0 1 -0.240002,0.100003l-1.389999,0a0.3,0.3 0 0 1 -0.239998,-0.110002a0.33,0.33 0 0 1 -0.080002,-0.25l0.240002,-1.949999l-1.590002,1.18a0.28,0.28 0 0 1 -0.25,0.060001a0.3,0.3 0 0 1 -0.219999,-0.160001l-0.67,-1.2a0.3,0.3 0 0 1 0,-0.260002a0.32,0.32 0 0 1 0.17,-0.189996l1.810001,-0.749999l-1.810001,-0.800004a0.25,0.25 0 0 1 -0.17,-0.189999a0.32,0.32 0 0 1 0,-0.269998l0.690001,-1.170006a0.27,0.27 0 0 1 0.209999,-0.150001a0.34,0.34 0 0 1 0.26,0l1.590002,1.180004l-0.240002,-1.930007a0.33,0.33 0 0 1 0.079998,-0.249999a0.32,0.32 0 0 1 0.240002,-0.109999l1.380001,0a0.31,0.31 0 0 1 0.32,0.359998l-0.25,2.000005l1.639999,-1.150002a0.3,0.3 0 0 1 0.259998,-0.059999a0.32,0.32 0 0 1 0.210003,0.150002l0.68,1.200003a0.32,0.32 0 0 1 0,0.270002a0.35,0.35 0 0 1 -0.190002,0.189996l-1.799999,0.790004l1.68,0.689998zm-12,-0.689998a0.28,0.28 0 0 1 0.18,0.200001a0.3,0.3 0 0 1 0,0.259996l-0.700001,1.200002a0.31,0.31 0 0 1 -0.219999,0.149997a0.32,0.32 0 0 1 -0.25,-0.059998l0.15,-0.479999l0.25,1.939996a0.38,0.38 0 0 1 -0.08,0.25a0.33,0.33 0 0 1 -0.25,0.110002l-1.389999,0a0.32,0.32 0 0 1 -0.24,-0.110002a0.33,0.33 0 0 1 -0.080002,-0.25l0.240002,-1.949995l-1.590002,1.179996a0.3,0.3 0 0 1 -0.259998,0.060001a0.29,0.29 0 0 1 -0.210003,-0.160001l-0.68,-1.2a0.3,0.3 0 0 1 0,-0.259998a0.31,0.31 0 0 1 0.18,-0.190001l1.810003,-0.749999l-1.810003,-0.800004a0.29,0.29 0 0 1 -0.18,-0.189995a0.32,0.32 0 0 1 0,-0.270001l0.689999,-1.170002a0.31,0.31 0 0 1 0.220001,-0.150001a0.34,0.34 0 0 1 0.259998,0l1.560005,1.220001l-0.24,-1.930002a0.34,0.34 0 0 1 0.08,-0.260003a0.32,0.32 0 0 1 0.24,-0.110001l1.379999,0a0.33,0.33 0 0 1 0.25,0.110001a0.34,0.34 0 0 1 0.08,0.260003l-0.23,1.98l1.59,-1.169998a0.28,0.28 0 0 1 0.25,-0.059999a0.29,0.29 0 0 1 0.219999,0.150002l0.67,1.199998a0.32,0.32 0 0 1 0,0.270002a0.33,0.33 0 0 1 -0.18,0.190001l-1.799999,0.789998l0.09,0zm-10.330004,0a0.37,0.37 0 0 1 0.180004,0.459997l-0.710003,1.200002a0.27,0.27 0 0 1 -0.209999,0.149997a0.34,0.34 0 0 1 -0.260002,-0.059998l-1.519997,-1.170001l0.239998,1.940001a0.33,0.33 0 0 1 -0.080002,0.25a0.3,0.3 0 0 1 -0.239998,0.110001l-1.419998,0a0.32,0.32 0 0 1 -0.240002,-0.110001a0.29,0.29 0 0 1 -0.07,-0.25l0.240002,-1.949998l-1.59,1.179999a0.3,0.3 0 0 1 -0.260002,0.059998a0.31,0.31 0 0 1 -0.209999,-0.160001l-0.68,-1.199995a0.39,0.39 0 0 1 0,-0.260002a0.31,0.31 0 0 1 0.18,-0.189999l1.810001,-0.750002l-1.810001,-0.8a0.29,0.29 0 0 1 -0.18,-0.190003a0.32,0.32 0 0 1 0,-0.270001l0.689999,-1.169998a0.34,0.34 0 0 1 0.470001,-0.099999l1.599998,1.220001l-0.25,-1.930006a0.34,0.34 0 0 1 0.080002,-0.259998a0.32,0.32 0 0 1 0.239998,-0.110002l1.389999,0a0.32,0.32 0 0 1 0.240002,0.110002a0.34,0.34 0 0 1 0.080002,0.259998l-0.27,1.930006l1.59,-1.170003a0.32,0.32 0 0 1 0.27,-0.060001a0.39,0.39 0 0 1 0.209999,0.150002l0.670002,1.200001a0.32,0.32 0 0 1 0,0.27a0.33,0.33 0 0 1 -0.18,0.190001l-1.810001,0.81l1.809998,0.670002z" class="cls-2"/>
   </clipPath>
  </defs>
  <defs>
   <style>.cls-1{fill:#591dcd}</style>
  </defs>
  <g stroke="null" id="svg_76">
   <path stroke="null" id="svg_71" d="m62.8172,1.260255a3.599916,3.741692 0 0 0 -0.572899,-0.490132c0.439457,1.964701 -1.316364,3.805305 -2.09193,4.59473l-38.623842,42.773963a3.889876,4.043071 0 0 1 -2.834385,1.193005a5.373787,5.585424 0 0 1 -3.542724,-1.507935c0.289959,0.693478 0.702325,1.323349 1.215022,1.859371a5.427967,5.641737 0 0 0 3.794559,1.754044a3.948068,4.103556 0 0 0 2.835384,-1.175274l38.623846,-42.809418c0.977238,-1.017809 3.576843,-3.717707 1.196968,-6.192355" class="cls-1"/>
   <path stroke="null" id="svg_72" fill="#8f51ff" d="m21.528528,48.138817l38.623842,-42.773963c0.775566,-0.789426 2.531384,-2.630029 2.091923,-4.59473c-2.210308,-1.578853 -4.488857,0.789426 -5.365753,1.754048l-41.154225,40.335818a4.294214,4.463334 0 0 0 -0.658178,5.000385a5.387834,5.600024 0 0 0 3.543731,1.506905a3.894892,4.048285 0 0 0 2.918661,-1.228462"/>
   <path stroke="null" id="svg_73" fill="#d8bcff" d="m19.623222,50.753204l-1.198969,1.227413l-1.181911,1.245148l-1.196962,1.245144l-1.265188,1.24514l-1.198969,1.227425l-1.180909,1.246185l-4.707583,-4.963894l1.198969,-1.245148l1.179906,-1.227413l1.197964,-1.24514l1.19897,-1.246193l1.180908,-1.226372l1.130744,-1.245148c0.657173,-0.685146 2.260479,-0.140785 3.577845,1.245148c0.406343,0.411922 0.753492,0.884323 1.028399,1.401566c0.506681,0.947941 0.607012,1.859371 0.167557,2.316139"/>
   <path stroke="null" id="svg_74" d="m8.756251,52.523937a4.354414,4.525904 0 0 0 -4.100573,3.280758c0,0.086559 0,0.174152 -0.084279,0.245064a4.38652,4.559275 0 0 1 3.459449,4.541546a4.203915,4.369478 0 0 1 -0.709348,2.402699a10.568985,10.985224 0 0 0 4.353412,-2.576851c2.481215,-2.362019 1.572204,-6.629299 -1.636416,-7.68256a4.379496,4.551974 0 0 0 -1.282245,-0.210655" class="cls-1"/>
   <path stroke="null" id="svg_75" fill="#c785ff" d="m4.45401,56.101898c-0.759514,2.561207 -1.485919,4.612457 -3.780514,5.630272c-0.361195,0.1898 -0.589952,0.576691 -0.589952,0.997993c-0.0301,0.612141 0.409354,1.13773 0.995296,1.194038a21.240305,22.076817 0 0 0 6.310889,-0.930199c0.434437,-0.718513 0.657174,-1.553829 0.641121,-2.402699a4.370466,4.542589 0 0 0 -3.629011,-4.489407"/>
  </g>
 </g>
</svg>