<svg width="143" height="138" xmlns="http://www.w3.org/2000/svg" xmlns:xlink="http://www.w3.org/1999/xlink" xml:space="preserve" version="1.1">
 <style>.st2{fill:#9f9fad}</style>

 <g>
  <title>background</title>
  <rect fill="none" id="canvas_background" height="621" width="1182" y="-1" x="-1"/>
 </g>
 <g>
  <title>Layer 1</title>
  <defs>
   <style>.cls-3,.cls-4{opacity:.53;isolation:isolate}.cls-3{fill:url(#radial-gradient-3)}.cls-4{fill:#ffd567}</style>
   <radialGradient gradientUnits="userSpaceOnUse" r="0" cy="417.18" cx="-3779.11" id="svg_20">
    <stop stop-color="#ff9640" offset="0"/>
    <stop stop-color="#fc4055" offset="0.8"/>
   </radialGradient>
   <radialGradient gradientUnits="userSpaceOnUse" r="0" cy="417.18" cx="-3779.11" id="svg_19">
    <stop stop-color="#ffde67" offset="0.09"/>
    <stop stop-opacity="0" stop-color="#ff9640" offset="0.82"/>
   </radialGradient>
   <radialGradient xlink:href="#svg_20" gradientTransform="translate(-51.663 .23) scale(.92361)" r="1.11" cy="417.16" cx="-3778.4" id="svg_18"/>
   <radialGradient xlink:href="#svg_19" gradientTransform="translate(-51.663 .23) scale(.92361)" r="1.13" cy="417.09" cx="-3778.39" id="svg_17"/>
  </defs>
  <g stroke="null" id="svg_38">
   <path stroke="null" id="svg_23" fill="url(#svg_20)" d="m19.212561,60.674686l0,-0.055691l0,0.055691z"/>
   <path stroke="null" id="svg_24" fill="url(#svg_19)" d="m19.212561,60.674686l0,-0.055691l0,0.055691z"/>
   <path stroke="null" id="svg_25" d="m19.212561,60.674686l0,-0.055691l0,0.055691z" class="cls-3"/>
   <path stroke="null" id="svg_26" d="m19.212561,60.674686l0,-0.055691l0,0.055691z" class="cls-4"/>
   <path stroke="null" id="svg_27" fill="url(#svg_18)" d="m19.449596,60.428204c0.902073,-0.838413 1.823437,-1.657227 2.774837,-2.47707c-1.407261,1.171501 -2.328627,2.029507 -2.774837,2.47707z"/>
   <path stroke="null" id="svg_28" fill="url(#svg_17)" d="m19.449596,60.428204c0.902073,-0.838413 1.823437,-1.657227 2.774837,-2.47707c-1.407261,1.171501 -2.328627,2.029507 -2.774837,2.47707z"/>
   <path stroke="null" id="svg_29" d="m19.449596,60.428204c0.902073,-0.838413 1.823437,-1.657227 2.774837,-2.47707c-1.407261,1.171501 -2.328627,2.029507 -2.774837,2.47707z" class="cls-3"/>
   <path stroke="null" id="svg_30" d="m19.449596,60.428204c0.902073,-0.838413 1.823437,-1.657227 2.774837,-2.47707c-1.407261,1.171501 -2.328627,2.029507 -2.774837,2.47707z" class="cls-4"/>
   <path stroke="null" id="svg_31" fill="#ffff98" d="m64.882042,43.073238l0.733643,-0.171192l-0.297112,0.067028l-0.436531,0.104164zm-45.540775,17.516876l0.257427,-0.172218l-0.157665,0.094887l-0.099762,0.077332z"/>
   <circle stroke="null" transform="matrix(1.07261 0 0 1.03125 -151.905 -138.282)" id="svg_32" opacity="0.15" fill="#bfbfc9" r="66.5" cy="200.999762" cx="208.282368"/>
   <path stroke="null" id="svg_33" fill="#9f9fad" d="m114.822594,45.350254c-0.060051,-4.238468 -0.119041,-9.049267 -0.129776,-14.477781a4.842821,4.656111 0 0 0 -3.962204,-4.562271l-38.368225,-6.381392a4.508168,4.33436 0 0 0 -0.822685,-0.067039a4.605775,4.428205 0 0 0 -0.822693,0.067039l-38.368233,6.381392a4.82566,4.639612 0 0 0 -3.963299,4.562271c0,5.428514 -0.078289,10.239313 -0.13835,14.477781c-0.099751,7.6189 -0.168394,13.182526 0.158741,16.630005c2.070131,22.125553 6.934401,32.202953 15.167742,43.061031a44.998016,43.263165 0 0 0 27.055447,16.745499c0.326073,0.0588 0.657501,0.087662 0.989998,0.085617c0.332527,0.003067 0.665039,-0.02581 0.990013,-0.085617a45.563282,43.806641 0 0 0 26.847382,-16.745499c8.233307,-10.858078 13.096535,-20.954063 15.177399,-43.061031c0.35717,-3.457821 0.28746,-8.98222 0.188744,-16.630005z"/>
   <path stroke="null" id="svg_34" fill="#80808e" d="m70.72773,20.004082l-38.369297,6.381405a4.846039,4.659205 0 0 0 -3.962215,4.563303c0,5.428511 -0.069715,10.239321 -0.129787,14.476736c-0.097612,7.620968 -0.168398,13.183552 0.149086,16.631031c2.080866,22.126587 6.934422,32.202972 15.177399,43.06105a44.911133,43.179634 0 0 0 27.055439,16.735176c0.308929,0.064972 0.625328,0.097984 0.940666,0.095909l0,-102.010607a4.538201,4.363235 0 0 0 -0.86129,0.065996l0,0z"/>
   <path stroke="null" id="svg_35" fill="#592acb" d="m70.806046,27.023827l-32.166416,5.353237a4.041584,3.885765 0 0 0 -3.359406,3.809456c0,4.544743 -0.057934,8.572826 -0.108337,12.135792c-0.108334,6.438129 -0.108334,11.076698 0.129776,14.010635c1.733334,18.563591 5.814602,27.011604 12.720062,36.117607a37.645294,36.19392 0 0 0 22.706005,13.99205c0.256371,0.052574 0.519135,0.078362 0.783012,0.076294l0,-85.551786c-0.235954,0 -0.471931,0.0196 -0.704697,0.056715z"/>
   <path stroke="null" id="svg_36" fill="#7542e5" d="m107.828148,48.340885c0,-3.552681 -0.099762,-7.619946 -0.108337,-12.134766a4.043729,3.887828 0 0 0 -3.348656,-3.810497l-32.177162,-5.352201a4.068399,3.911546 0 0 0 -0.693985,-0.056709l0,85.550779c0.267082,0.003075 0.532028,-0.022697 0.792656,-0.075317a38.179451,36.707481 0 0 0 22.676003,-14.040512c6.934418,-9.105965 10.98671,-17.554001 12.730774,-36.117596c0.277817,-2.905056 0.217743,-7.543625 0.128708,-13.963181z"/>
   <path stroke="null" id="svg_37" fill="#fff" d="m84.269386,58.999924a3.425908,3.293825 0 0 0 -2.891747,-3.23917l-9.907669,-1.571625l-9.906597,1.571625a3.428053,3.295888 0 0 0 -2.902473,3.23917c0,2.580185 0,5.999825 0.179123,7.618912c0.475182,4.91494 1.474831,7.619926 3.962204,10.668312a13.380775,12.864893 0 0 0 8.510082,4.761292l0.336792,0a13.388283,12.872112 0 0 0 8.510063,-4.761292c2.435905,-3.066948 3.426994,-5.71521 3.962204,-10.668312c0.13839,-1.714989 0.148018,-5.504837 0.148018,-7.618912zm-3.34761,7.31469c-0.436539,4.37146 -1.19915,6.49482 -3.270363,9.09565a10.290593,9.893849 0 0 1 -6.151405,3.561935a10.275577,9.879413 0 0 1 -6.14283,-3.561935c-2.079773,-2.610107 -2.842392,-4.762314 -3.268238,-9.086372c-0.119045,-1.162224 -0.168392,-3.81049 -0.168392,-7.315712c0.011803,-0.115498 0.107269,-0.206261 0.227398,-0.218628l9.352062,-1.486057l9.352066,1.486057a0.245627,0.236157 0 0 1 0.227402,0.218628c0.010689,3.495945 -0.049339,6.182343 -0.1577,7.306435zm-15.801636,-4.887123c0,3.019508 0.098701,4.201347 0.139427,4.600426c0.4151,4.143578 1.109085,5.611061 2.62468,7.514748a6.921535,6.654683 0 0 0 3.615761,2.277008l0,-15.391468l-6.379868,0.999287z"/>
  </g>
 </g>
</svg>