<svg width="143" height="138" xmlns="http://www.w3.org/2000/svg" xmlns:undefined="https://boxy-svg.com" xml:space="preserve" version="1.1">
 <style>.st2{fill:#9f9fad}</style>

 <g>
  <title>background</title>
  <rect fill="none" id="canvas_background" height="621" width="1182" y="-1" x="-1"/>
 </g>
 <g>
  <title>Layer 1</title>
  <defs>
   <style>.cls-3{fill:#0090ed}.cls-8{fill:#faa257}.cls-10{fill:#dc7f48}</style>
  </defs>
  <g stroke="null" id="svg_29">
   <circle stroke="null" transform="matrix(1.02521 0 0 1.01081 -102.488 -75.2219)" id="svg_13"  fill="#bfbfc9" opacity="0.15" r="67.974998" cy="142.556263" cx="171.152266"/>
   <path stroke="null" id="svg_14"  fill="#9f9fad" d="m107.021309,87.23629c0.758652,-0.894562 1.175934,-2.021606 1.181053,-3.187065l0,-60.846531a5.160927,5.088403 0 0 0 -5.140411,-5.06819l-87.430231,0a5.1599,5.087392 0 0 0 -5.149639,5.06819l0,60.846531a5.072757,5.001473 0 0 0 1.152336,3.187065l-11.470089,1.908417l0,5.067177l118.32606,0l0,-5.086365l-11.469078,-1.889229z"/>
   <path stroke="null" id="svg_15"  d="m68.740868,28.269857l-53.109148,52.362848a1.712107,1.688048 0 0 0 1.713142,1.689049l84.003939,0a1.712107,1.688048 0 0 0 1.71315,-1.689049l0,-52.362848l-34.321083,0z" class="cls-3"/>
   <path stroke="null" id="svg_16"  d="m15.63172,28.269857l0,52.400232l53.137835,-52.400232l-53.137835,0z" fill="#00a2f1"/>
   <path stroke="null" id="svg_17"  d="m101.348801,23.202694l-84.003939,0a1.712107,1.688048 0 0 0 -1.713142,1.689054l0,3.378109l87.430231,0l0,-3.378109a1.721333,1.697145 0 0 0 -1.71315,-1.689054z" class="cls-3"/>
   <path stroke="null" id="svg_18"  fill="#8f8f9d" d="m101.503632,88.476547l-84.003975,0a0.861179,0.849078 0 1 1 0,-1.689064l84.003975,0a0.861179,0.849078 0 0 1 0,1.689064z"/>
   <path stroke="#80808e" id="svg_19"  d="m53.021244,90.681137l12.002201,0" stroke-linejoin="round" stroke-linecap="round" fill="none"/>
   <path stroke="null" id="svg_20"  fill="#bfbfc9" d="m131.451126,48.768028l-36.373543,0a5.208086,5.1349 0 0 0 -5.197838,5.14399l0,64.892807a5.206036,5.132878 0 0 0 5.197838,5.11467l36.373543,0a5.208086,5.1349 0 0 0 5.197845,-5.11467l0,-64.892807a5.208086,5.1349 0 0 0 -5.197845,-5.14399z"/>
   <path stroke="null" id="svg_21"  d="m95.077583,94.870926l0,20.498146a1.741838,1.717361 0 0 0 1.732597,1.708298l32.908325,0a1.732611,1.708264 0 0 0 1.73262,-1.708298l0,-56.36158l-36.373543,35.863434z" class="cls-8"/>
   <path stroke="null" id="svg_22"  d="m95.077583,59.007492l0,35.863434l36.373543,-35.863434l-36.373543,0z" fill="#fabb6a"/>
   <path stroke="null" id="svg_23"  d="m129.718506,53.912018l-32.908325,0a1.741838,1.717361 0 0 0 -1.732597,1.708252l0,3.416534l36.373543,0l0,-3.445847a1.732611,1.708264 0 0 0 -1.73262,-1.67894z" class="cls-8"/>
   <circle stroke="null" transform="matrix(1.02521 0 0 1.01081 -102.488 -75.2219)" id="svg_24"  r="2.53" cy="182.633263" cx="201.996266" class="cls-10"/>
   <circle stroke="null" transform="matrix(1.02521 0 0 1.01081 -102.488 -75.2219)" id="svg_25"  r="2.53" cy="182.633263" cx="210.445266" class="cls-10"/>
   <circle stroke="null" transform="matrix(1.02521 0 0 1.01081 -102.488 -75.2219)" id="svg_26"  r="2.53" cy="182.633263" cx="218.895266" class="cls-10"/>
   <path stroke="#9f9fad" id="svg_27"  d="m110.979637,120.493881l4.888245,0" stroke-linejoin="round" stroke-linecap="round" fill="none"/>
   <path stroke="null" id="svg_28" fill="#fff"  d="m59.30378,51.402184l0,5.058079l7.61734,0a6.69977,6.605624 0 0 1 -2.82653,4.427341a8.201709,8.086455 0 0 1 -4.840023,1.364597a8.343187,8.225946 0 0 1 -7.878773,-5.668617a8.575912,8.4554 0 0 1 -0.454178,-2.70089c0.00309,-0.913769 0.15379,-1.822479 0.44495,-2.690769a8.362666,8.245152 0 0 1 7.888,-5.668602a7.741388,7.632603 0 0 1 5.343418,2.023643l3.871201,-3.760201a13.300097,13.113199 0 0 0 -9.252556,-3.540859c-10.295189,0.002018 -16.984711,10.690292 -12.370228,19.764297a13.841408,13.646905 0 0 0 12.370228,7.51939a13.159642,12.974719 0 0 0 9.156189,-3.301292a13.551274,13.360846 0 0 0 4.239258,-10.04034a12.228749,12.056907 0 0 0 -0.290131,-2.785778l-13.018166,0zm67.171974,29.230522l0,3.559044l5.361862,0a4.72931,4.662852 0 0 1 -1.983765,3.120354a5.801683,5.720156 0 0 1 -3.378098,0.954216a5.806809,5.725211 0 0 1 -5.526924,-3.988663a5.761701,5.680736 0 0 1 -0.329094,-1.908394a6.272257,6.184117 0 0 1 0.309601,-1.908417a5.875499,5.792934 0 0 1 5.546417,-3.989655a5.377245,5.301682 0 0 1 3.765625,1.431335l2.738342,-2.64328a9.327392,9.196321 0 0 0 -6.503967,-2.499733c-7.280022,-0.072762 -12.030861,7.506271 -8.711227,13.894562a9.678016,9.542016 0 0 0 8.711227,5.28653a9.284334,9.153868 0 0 0 6.446548,-2.318794a9.506805,9.373213 0 0 0 2.903427,-7.052406a8.771728,8.648464 0 0 0 -0.203018,-1.967026l-9.146957,0.030327z"/>
  </g>
 </g>
</svg>