<svg width="64" height="64" xmlns="http://www.w3.org/2000/svg">
 <style>.st1{fill:#ffd5b2}</style>

 <g>
  <title>background</title>
  <rect fill="none" id="canvas_background" height="621" width="1182" y="-1" x="-1"/>
 </g>
 <g>
  <title>Layer 1</title>
  <defs>
   <style>.cls-1{fill:#ab71ff}.cls-2{fill:#7542e5}.cls-3{fill:#592acb}</style>
  </defs>
  <g stroke="null" id="svg_28">
   <path stroke="null" id="svg_16" d="m63.869022,29.536995a1.627505,1.727768 0 0 0 -1.35144,-1.73094c-3.164307,-0.588263 -12.032375,-2.820717 -15.031246,-6.004337c-2.999874,-3.18574 -5.085827,-12.63609 -5.657898,-15.993231a1.630495,1.730942 0 0 0 -1.629494,-1.435752l0,25.16426l23.670078,0z" class="cls-1"/>
   <path stroke="null" id="svg_17" d="m40.300598,4.372737a1.631491,1.732 0 0 0 -1.63348,1.455853c-0.522236,3.361371 -2.496571,12.788448 -5.48349,15.95937c-2.988905,3.170929 -11.933704,5.406557 -15.197687,6.04772a1.633485,1.734117 0 0 0 -1.355423,1.733061l23.67008,0l0,-25.196004z" class="cls-2"/>
   <path stroke="null" id="svg_18" d="m40.231834,29.495735l0,25.094429a1.629498,1.729884 0 0 0 1.629498,-1.436806c0.555126,-3.460819 2.674969,-12.943977 5.656898,-16.129715c2.983925,-3.183624 11.851986,-5.277472 15.015308,-5.814951c0.797306,-0.137547 1.379341,-0.873936 1.368374,-1.730942l-23.670078,0l0,0.017984z" class="cls-2"/>
   <path stroke="null" id="svg_19" d="m16.630516,29.495735a1.633485,1.734117 0 0 0 1.355425,1.733057c3.263981,0.537477 12.192829,2.651438 15.197683,5.822359c3.002865,3.170921 4.895473,12.719673 5.483486,16.131832a1.632488,1.733058 0 0 0 1.633488,1.456909l0,-25.144157l-23.670082,0z" class="cls-3"/>
   <path stroke="null" id="svg_20" d="m27.746983,10.490284a0.681698,0.723695 0 0 0 -0.552137,-0.708882c-1.318548,-0.243345 -4.98118,-1.158545 -6.219002,-2.471564c-1.236822,-1.313019 -2.098913,-5.183305 -2.326143,-6.600011a0.686682,0.728985 0 0 0 -0.667749,-0.588267l0,10.368725l9.765032,0z" class="cls-1"/>
   <path stroke="null" id="svg_21" fill="#9158ff" d="m18.032782,0.121559a0.687678,0.730043 0 0 0 -0.670734,0.60837c-0.21328,1.389198 -1.031519,5.208697 -2.274322,6.61694c-1.243801,1.407184 -4.907432,2.239857 -6.31468,2.485321a0.684688,0.726869 0 0 0 -0.55712,0.712054l9.816856,0l0,-10.422685z"/>
   <path stroke="null" id="svg_22" d="m17.918169,10.490284l0,10.420568a0.688675,0.731101 0 0 0 0.67173,-0.590382c0.228231,-1.423054 1.094307,-5.385389 2.338108,-6.703697c1.244797,-1.321485 4.909426,-2.190129 6.234949,-2.415491a0.684688,0.726869 0 0 0 0.572069,-0.710999l-9.816856,0z" class="cls-2"/>
   <path stroke="null" id="svg_23" d="m8.215926,10.490284a0.669739,0.710998 0 0 0 0.573066,0.709942c1.325524,0.226418 5.054934,1.095063 6.298735,2.415486c1.242802,1.319369 2.061043,5.210816 2.273325,6.685716c0.049833,0.35338 0.335865,0.612598 0.67173,0.60837l0,-10.419514l-9.816855,0z" class="cls-3"/>
   <path stroke="null" id="svg_24" d="m26.05669,50.231075a0.879032,0.933185 0 0 0 -0.74947,-0.933186c-1.741121,-0.329052 -6.624634,-1.555313 -8.268084,-3.317993c-1.643452,-1.762684 -2.815495,-6.913189 -3.125448,-8.777443a0.878035,0.932127 0 0 0 -0.879031,-0.795647l0,13.824268l13.022033,0z" class="cls-1"/>
   <path stroke="null" id="svg_25" d="m13.098442,36.406807a0.892985,0.947998 0 0 0 -0.87704,0.795639c-0.295003,1.848385 -1.384326,7.031693 -3.028773,8.777447c-1.643451,1.744694 -6.60769,2.988945 -8.364758,3.317997a0.878035,0.932127 0 0 0 -0.74947,0.933186l13.020041,0l-0.000001,-13.824268z" class="cls-2"/>
   <path stroke="null" id="svg_26" d="m13.034657,50.166531l0,13.822147a0.879032,0.933185 0 0 0 0.879031,-0.795643c0.309955,-1.866371 1.481997,-7.135372 3.125448,-8.881134c1.64345,-1.744694 6.511017,-2.901123 8.268084,-3.214302a0.893982,0.949056 0 0 0 0.74947,-0.931068l-13.022033,0z" class="cls-2"/>
   <path stroke="null" id="svg_27" d="m0.078402,50.166531a0.893982,0.949056 0 0 0 0.74947,0.931068c1.773014,0.313179 6.721307,1.469608 8.364758,3.214302c1.644447,1.745762 2.73377,6.997837 3.028773,8.881134c0.069765,0.458134 0.44151,0.792473 0.87704,0.795643l0,-13.822147l-13.02004,0z" class="cls-3"/>
  </g>
 </g>
</svg>