<svg width="64" height="64" xmlns="http://www.w3.org/2000/svg">
 <style>.st1{fill:#ffd5b2}</style>

 <g>
  <title>background</title>
  <rect fill="none" id="canvas_background" height="621" width="1182" y="-1" x="-1"/>
 </g>
 <g>
  <title>Layer 1</title>
  <defs>
   <style>.cls-1{fill:#ab71ff}.cls-2{fill:#7542e5}.cls-3{fill:#592acb}</style>
  </defs>
  <defs>
   <style>.cls-1{fill:#9059ff}</style>
  </defs>
  <defs>
   <style>.cls-1{fill:#7542e5}.cls-2{fill:#d9bfff}</style>
   <clipPath id="svg_55">
    <path id="svg_57" d="m-13.307135,-15.693515l-33.429998,0a5.73,5.73 0 0 0 -5.720001,5.720016l0,5.179999a5.73,5.73 0 0 0 5.720001,5.720005l33.429998,0a5.74,5.74 0 0 0 5.720001,-5.720005l0,-5.179999a5.74,5.74 0 0 0 -5.720001,-5.720016z" class="cls-1"/>
   </clipPath>
   <clipPath id="svg_54">
    <path id="svg_58" d="m-16.387133,-6.633497a0.32,0.32 0 0 1 0.150002,0.459998l-0.700001,1.199998a0.31,0.31 0 0 1 -0.220001,0.150003a0.35,0.35 0 0 1 -0.259998,-0.060001l-1.450001,-1.170002l0.239998,1.940001a0.37,0.37 0 0 1 -0.079998,0.259999a0.28,0.28 0 0 1 -0.240002,0.100003l-1.389999,0a0.3,0.3 0 0 1 -0.239998,-0.110002a0.33,0.33 0 0 1 -0.080002,-0.25l0.240002,-1.949999l-1.590002,1.18a0.28,0.28 0 0 1 -0.25,0.060001a0.3,0.3 0 0 1 -0.219999,-0.160001l-0.67,-1.2a0.3,0.3 0 0 1 0,-0.260002a0.32,0.32 0 0 1 0.17,-0.189996l1.810001,-0.749999l-1.810001,-0.800004a0.25,0.25 0 0 1 -0.17,-0.189999a0.32,0.32 0 0 1 0,-0.269998l0.690001,-1.170006a0.27,0.27 0 0 1 0.209999,-0.150001a0.34,0.34 0 0 1 0.26,0l1.590002,1.180004l-0.240002,-1.930007a0.33,0.33 0 0 1 0.079998,-0.249999a0.32,0.32 0 0 1 0.240002,-0.109999l1.380001,0a0.31,0.31 0 0 1 0.32,0.359998l-0.25,2.000005l1.639999,-1.150002a0.3,0.3 0 0 1 0.259998,-0.059999a0.32,0.32 0 0 1 0.210003,0.150002l0.68,1.200003a0.32,0.32 0 0 1 0,0.270002a0.35,0.35 0 0 1 -0.190002,0.189996l-1.799999,0.790004l1.68,0.689998zm-12,-0.689998a0.28,0.28 0 0 1 0.18,0.200001a0.3,0.3 0 0 1 0,0.259996l-0.700001,1.200002a0.31,0.31 0 0 1 -0.219999,0.149997a0.32,0.32 0 0 1 -0.25,-0.059998l0.15,-0.479999l0.25,1.939996a0.38,0.38 0 0 1 -0.08,0.25a0.33,0.33 0 0 1 -0.25,0.110002l-1.389999,0a0.32,0.32 0 0 1 -0.24,-0.110002a0.33,0.33 0 0 1 -0.080002,-0.25l0.240002,-1.949995l-1.590002,1.179996a0.3,0.3 0 0 1 -0.259998,0.060001a0.29,0.29 0 0 1 -0.210003,-0.160001l-0.68,-1.2a0.3,0.3 0 0 1 0,-0.259998a0.31,0.31 0 0 1 0.18,-0.190001l1.810003,-0.749999l-1.810003,-0.800004a0.29,0.29 0 0 1 -0.18,-0.189995a0.32,0.32 0 0 1 0,-0.270001l0.689999,-1.170002a0.31,0.31 0 0 1 0.220001,-0.150001a0.34,0.34 0 0 1 0.259998,0l1.560005,1.220001l-0.24,-1.930002a0.34,0.34 0 0 1 0.08,-0.260003a0.32,0.32 0 0 1 0.24,-0.110001l1.379999,0a0.33,0.33 0 0 1 0.25,0.110001a0.34,0.34 0 0 1 0.08,0.260003l-0.23,1.98l1.59,-1.169998a0.28,0.28 0 0 1 0.25,-0.059999a0.29,0.29 0 0 1 0.219999,0.150002l0.67,1.199998a0.32,0.32 0 0 1 0,0.270002a0.33,0.33 0 0 1 -0.18,0.190001l-1.799999,0.789998l0.09,0zm-10.330004,0a0.37,0.37 0 0 1 0.180004,0.459997l-0.710003,1.200002a0.27,0.27 0 0 1 -0.209999,0.149997a0.34,0.34 0 0 1 -0.260002,-0.059998l-1.519997,-1.170001l0.239998,1.940001a0.33,0.33 0 0 1 -0.080002,0.25a0.3,0.3 0 0 1 -0.239998,0.110001l-1.419998,0a0.32,0.32 0 0 1 -0.240002,-0.110001a0.29,0.29 0 0 1 -0.07,-0.25l0.240002,-1.949998l-1.59,1.179999a0.3,0.3 0 0 1 -0.260002,0.059998a0.31,0.31 0 0 1 -0.209999,-0.160001l-0.68,-1.199995a0.39,0.39 0 0 1 0,-0.260002a0.31,0.31 0 0 1 0.18,-0.189999l1.810001,-0.750002l-1.810001,-0.8a0.29,0.29 0 0 1 -0.18,-0.190003a0.32,0.32 0 0 1 0,-0.270001l0.689999,-1.169998a0.34,0.34 0 0 1 0.470001,-0.099999l1.599998,1.220001l-0.25,-1.930006a0.34,0.34 0 0 1 0.080002,-0.259998a0.32,0.32 0 0 1 0.239998,-0.110002l1.389999,0a0.32,0.32 0 0 1 0.240002,0.110002a0.34,0.34 0 0 1 0.080002,0.259998l-0.27,1.930006l1.59,-1.170003a0.32,0.32 0 0 1 0.27,-0.060001a0.39,0.39 0 0 1 0.209999,0.150002l0.670002,1.200001a0.32,0.32 0 0 1 0,0.27a0.33,0.33 0 0 1 -0.18,0.190001l-1.810001,0.81l1.809998,0.670002z" class="cls-2"/>
   </clipPath>
  </defs>
  <g stroke="null" id="svg_66">
   <path stroke="null" id="svg_59" d="m53.269753,20.963827l-42.539095,0a7.292812,7.511043 0 0 0 -7.278973,7.496853l0,6.788977a7.290967,7.509141 0 0 0 7.278973,7.495842l42.539095,0a7.303882,7.522444 0 0 0 7.278973,-7.495842l0,-6.788977a7.304805,7.523395 0 0 0 -7.278973,-7.496853z" class="cls-1"/>
   <g stroke="null" id="svg_60" clip-path="url(#svg_55)" transform="matrix(1.27249 0 0 1.31057 20.8045 -12.7734)">
    <path stroke="null" id="svg_61" d="m-16.246813,23.132143l50.090002,0l0,21.840117l-50.090002,0l0,-21.840117z" class="cls-1"/>
   </g>
   <path stroke="null" id="svg_62" fill="#5a2ac9" d="m53.269753,20.963827l0,-1.009075l-42.55201,0a8.284559,8.532467 0 0 0 -8.245814,8.505928l0,6.788977a8.271644,8.519165 0 0 0 8.245814,8.50491l42.55201,0a8.270722,8.518215 0 0 0 8.245808,-8.492558l0,-6.801329a8.271644,8.519165 0 0 0 -8.245808,-8.505928l0,2.018147a6.363796,6.554227 0 0 1 6.362873,6.487782l0,6.788977a6.362874,6.553277 0 0 1 -6.362873,6.552326l-42.539095,0a6.362874,6.553277 0 0 1 -6.299219,-6.552326l0,-6.788977a6.363796,6.554227 0 0 1 6.362873,-6.487782l42.462521,0l0.01292,-1.009071z"/>
   <path stroke="null" id="svg_63" d="m49.350731,32.838139a0.406848,0.419022 0 0 1 0.190964,0.602406l-0.89119,1.572521a0.394857,0.40667 0 0 1 -0.279533,0.196682a0.444672,0.457979 0 0 1 -0.331196,-0.078869l-1.845116,-1.532612l0.305363,2.541691a0.470504,0.484583 0 0 1 -0.101479,0.341103a0.356107,0.366763 0 0 1 -0.305367,0.131126l-1.768543,0a0.384706,0.396218 0 0 1 -0.306282,-0.144424a0.423454,0.436125 0 0 1 -0.101482,-0.327805l0.305363,-2.554989l-2.02317,1.54591a0.356107,0.366763 0 0 1 -0.318279,0.078869a0.381939,0.393368 0 0 1 -0.279533,-0.209988l-0.852444,-1.572525a0.377326,0.388617 0 0 1 0,-0.340153a0.405925,0.418072 0 0 1 0.215878,-0.248943l2.303627,-0.983425l-2.303627,-1.048046a0.318282,0.327806 0 0 1 -0.215878,-0.248943a0.40777,0.419972 0 0 1 0,-0.354418l0.87735,-1.533585a0.345036,0.355361 0 0 1 0.267548,-0.19574a0.429912,0.442776 0 0 1 0.331196,0l2.023159,1.545938l-0.305363,-2.529375a0.417918,0.430424 0 0 1 0.101486,-0.327805a0.40777,0.419972 0 0 1 0.305363,-0.144434l1.756557,0a0.394857,0.40667 0 0 1 0.406841,0.472239l-0.318283,2.621546l2.086826,-1.507935a0.382862,0.394318 0 0 1 0.3312,-0.077915c0.111618,0.023758 0.208492,0.09502 0.266609,0.196688l0.865368,1.572542a0.405925,0.418072 0 0 1 0,0.353468a0.442827,0.456079 0 0 1 -0.241714,0.248951l-2.289783,1.03569l2.137566,0.904558zm-15.270161,-0.904558a0.356107,0.366763 0 0 1 0.229717,0.261293a0.385629,0.397168 0 0 1 0,0.34111l-0.891193,1.572521a0.394857,0.40667 0 0 1 -0.279533,0.196686a0.405002,0.417122 0 0 1 -0.318283,-0.078865l-1.947517,-1.532612l0.318285,2.541687a0.476962,0.491235 0 0 1 -0.101484,0.327808a0.418841,0.431374 0 0 1 -0.318281,0.144424l-1.768541,0a0.40777,0.419972 0 0 1 -0.305365,-0.144424a0.420686,0.433275 0 0 1 -0.102404,-0.327808l0.306288,-2.554993l-2.02409,1.545918a0.378248,0.389567 0 0 1 -0.330275,0.078865a0.369023,0.380065 0 0 1 -0.267542,-0.209991l-0.865358,-1.572517a0.383784,0.395268 0 0 1 0,-0.340157a0.393009,0.40477 0 0 1 0.228794,-0.248945l2.303625,-0.983433l-2.303625,-1.048046a0.373636,0.384819 0 0 1 -0.228794,-0.248947a0.40777,0.419972 0 0 1 0,-0.354418l0.878273,-1.533585a0.391164,0.402869 0 0 1 0.279537,-0.19574a0.429912,0.442776 0 0 1 0.331198,0l1.98534,1.5982l-0.305365,-2.529373a0.430834,0.443726 0 0 1 0.101479,-0.340162a0.405002,0.417122 0 0 1 0.30537,-0.144426l1.756546,0a0.416996,0.429474 0 0 1 0.419764,0.484589l-0.293375,2.594933l2.02409,-1.533585a0.356107,0.366763 0 0 1 0.31736,-0.077917a0.369023,0.380065 0 0 1 0.280453,0.196686l0.85244,1.57255a0.405925,0.418072 0 0 1 0,0.353462a0.418841,0.431374 0 0 1 -0.228786,0.248951l-2.290709,1.035692l2.251963,0.90457zm-13.14459,0c0.214956,0.11117 0.313665,0.370565 0.228794,0.602404l-0.903183,1.572521a0.341345,0.35156 0 0 1 -0.267542,0.196686a0.427144,0.439926 0 0 1 -0.330276,-0.078865l-1.934599,-1.532612l0.305367,2.541687a0.415151,0.427574 0 0 1 -0.101484,0.327808a0.382862,0.394318 0 0 1 -0.305367,0.144424l-1.807287,0a0.409616,0.421873 0 0 1 -0.305367,-0.144424a0.367178,0.378163 0 0 1 -0.088565,-0.327808l0.305366,-2.554993l-2.023166,1.545918a0.380094,0.391467 0 0 1 -0.331198,0.078865a0.393009,0.40477 0 0 1 -0.267541,-0.209991l-0.86536,-1.572517a0.49449,0.509287 0 0 1 0,-0.340157a0.392087,0.40382 0 0 1 0.229715,-0.248945l2.302706,-0.983433l-2.302706,-1.048046a0.372713,0.383866 0 0 1 -0.229715,-0.248947a0.40777,0.419972 0 0 1 0,-0.354418l0.878277,-1.533585a0.433602,0.446577 0 0 1 0.597815,-0.131128l2.036081,1.599148l-0.318281,-2.529373a0.433602,0.446577 0 0 1 0.102405,-0.340166a0.405002,0.417122 0 0 1 0.305366,-0.144426l1.768543,0c0.117163,0 0.228794,0.053217 0.305365,0.144426a0.429912,0.442776 0 0 1 0.101482,0.340166l-0.343189,2.529373l2.023163,-1.533585c0.096869,-0.077917 0.223259,-0.10737 0.344114,-0.077917a0.493568,0.508337 0 0 1 0.266619,0.196686l0.852444,1.57255a0.405925,0.418072 0 0 1 0,0.353462a0.418841,0.431374 0 0 1 -0.228794,0.248951l-2.303625,1.06135l2.303625,0.878912z" class="cls-2"/>
   <g stroke="null" id="svg_64" clip-path="url(#svg_54)" transform="matrix(1.27249 0 0 1.31057 20.8045 -12.7734)">
    <path stroke="null" id="svg_65" d="m-7.686811,27.802176l33.02,0l0,12.500086l-33.02,0l0,-12.500086z" class="cls-2"/>
   </g>
  </g>
 </g>
</svg>