<svg width="64" height="64" xmlns="http://www.w3.org/2000/svg">
 <style>.st0{fill:#ff68bb}.st1{fill:#e31587}</style>

 <g>
  <title>background</title>
  <rect fill="none" id="canvas_background" height="730" width="1182" y="-1" x="-1"/>
 </g>
 <g>
  <title>Layer 1</title>
  <g stroke="null" id="svg_12">
   <path stroke="null" id="svg_10" d="m26.119791,19.809513c-1.062752,0 -1.932291,0.870535 -1.932291,1.934528l0,3.095238l-8.30886,-8.318447c-0.772915,-0.773808 -2.028901,-0.773808 -2.705202,0c-0.772918,0.773806 -0.772918,1.934519 0,2.708328l8.308854,8.318457l-3.091667,0c-1.449219,0 -2.415364,1.644339 -1.642445,2.901787c0.386454,0.580353 0.966143,0.967257 1.642445,0.967257l7.729166,0l0.772923,-0.193455c0.483067,-0.193449 0.869535,-0.580351 1.062763,-1.063984l0.193228,-0.773811l0,-7.738096c-0.096617,-0.967266 -0.966152,-1.837801 -2.028913,-1.837801m25.119799,-15.476184l-38.645842,0c-6.376563,0 -11.593754,5.223218 -11.593754,11.607148l0,30.952391c0,6.383926 5.217192,11.607147 11.593754,11.607147l7.729172,0c2.99505,-0.193451 4.637501,-3.578873 2.99505,-5.997021c-0.6763,-0.967262 -1.739065,-1.644356 -2.99505,-1.741077l-7.729172,0c-2.125521,0 -3.864587,-1.741074 -3.864587,-3.869049l0,-30.952391c0,-2.127975 1.739066,-3.86905 3.864587,-3.86905l38.645842,0c2.125526,0 3.864582,1.741075 3.864582,3.86905l0,7.738087c0,2.998512 3.188286,4.836308 5.796879,3.385416c1.159378,-0.677082 1.932289,-1.934523 1.932289,-3.385416l0,-7.738087c0,-6.38393 -5.217186,-11.607148 -11.59375,-11.607148" fill="#008ef0"/>
   <path stroke="null" id="svg_11" d="m62.83334,39.154781l0,15.476181c0,2.127987 -1.739063,3.869053 -3.864582,3.869053l-23.187511,0c-2.125507,0 -3.864573,-1.741066 -3.864573,-3.869053l0,-15.476181c0,-2.127979 1.739065,-3.869053 3.864573,-3.869053l23.187511,0c2.125519,0 3.864582,1.741074 3.864582,3.869053" fill="#00b3f4"/>
  </g>
 </g>
</svg>