<svg width="64" height="64" xmlns="http://www.w3.org/2000/svg">
 <style>.st1{fill:#ffd5b2}</style>

 <g>
  <title>background</title>
  <rect fill="none" id="canvas_background" height="621" width="1182" y="-1" x="-1"/>
 </g>
 <g>
  <title>Layer 1</title>
  <defs>
   <style>.cls-1{fill:#ab71ff}.cls-2{fill:#7542e5}.cls-3{fill:#592acb}</style>
  </defs>
  <g stroke="null" id="svg_39">
   <path stroke="null" id="svg_37" fill="#7542e5" d="m25.866671,20.338612a1.968935,1.875782 0 0 0 -1.985823,1.876726l0,3.012424l-8.529401,-8.125872a2.019599,1.924049 0 0 0 -2.826246,0a1.982843,1.889032 0 0 0 0,2.676445l8.545295,8.126814l-3.162018,0c-1.528856,0 -2.482525,1.576717 -1.719587,2.83733a1.986817,1.892818 0 0 0 1.719587,0.945467l7.958193,0l0.756975,-0.144798a1.979863,1.886193 0 0 0 1.075865,-1.024963l0.151989,-0.721163l0,-7.581684a1.969929,1.876728 0 0 0 -1.984829,-1.876726m25.824636,-15.145359l-39.739302,0c-6.571396,0 -11.902025,5.071812 -11.910966,11.331329l0,30.293598c-0.008939,6.276577 5.324669,11.371109 11.910966,11.37962l7.959187,0c3.061684,-0.189285 4.761404,-3.46669 3.056713,-5.898964a3.988533,3.799831 0 0 0 -3.056713,-1.68177l-7.959187,0a3.970652,3.782796 0 0 1 -3.969659,-3.783741l0,-30.308743a3.970652,3.782796 0 0 1 3.969659,-3.781819l39.739302,0a3.986547,3.797938 0 0 1 3.986549,3.781819l0,7.58263c0,2.911156 3.308048,4.731096 5.955482,3.274576a3.969659,3.781849 0 0 0 1.985821,-3.27458l0,-7.582626c0,-6.272769 -5.343544,-11.356886 -11.927853,-11.347417"/>
   <path stroke="null" id="svg_38" fill="#d9bfff" d="m63.61916,39.253532l0,15.145378a3.969659,3.781849 0 0 1 -3.97065,3.798889l-23.855705,0a3.98754,3.798885 0 0 1 -3.971649,-3.798889l0,-15.145378a3.971646,3.783743 0 0 1 3.971649,-3.767647l23.855705,0a3.953765,3.766707 0 0 1 3.97065,3.767647"/>
  </g>
 </g>
</svg>