<svg width="64" height="64" xmlns="http://www.w3.org/2000/svg">
 <style>.st1{fill:#ffd5b2}</style>

 <g>
  <title>background</title>
  <rect fill="none" id="canvas_background" height="621" width="1182" y="-1" x="-1"/>
 </g>
 <g>
  <title>Layer 1</title>
  <defs>
   <style>.cls-1{fill:#ab71ff}.cls-2{fill:#7542e5}.cls-3{fill:#592acb}</style>
  </defs>
  <defs>
   <style>.cls-1{fill:#9059ff}</style>
  </defs>
  <g stroke="null" id="svg_48">
   <path stroke="null" id="svg_44" d="m50.887241,17.583145c-10.313133,0 -13.54525,3.703426 -18.447647,3.890034l8.32552,21.258812c2.753613,1.794296 5.601746,3.559883 8.78611,3.559883c8.16436,0 14.196861,-6.976223 14.324188,-18.919052c0,-7.4221 -2.402454,-9.789677 -12.988171,-9.789677zm-1.830441,16.966862c-4.16922,0 -9.087532,-1.43544 -9.087532,-2.61339c0,-1.176161 2.371613,-5.453764 8.450863,-5.224096c6.366745,0.258377 9.088531,3.717783 9.088531,4.579042s-4.264729,3.258444 -8.451862,3.258444z" class="cls-1"/>
   <path stroke="null" id="svg_45" fill="#c689ff" d="m32.041672,21.50189l0,17.612803c3.183372,0 5.936993,1.823006 8.723442,3.617298l-8.32552,-21.258812l-0.397923,0.028711z"/>
   <path stroke="null" id="svg_46" fill="#7641e5" d="m13.197093,17.583145c-10.585714,0 -12.989162,2.367577 -12.989162,9.789677c0.095501,11.942833 6.127996,18.919052 14.325182,18.919052c3.183376,0 6.00066,-1.851711 8.865696,-3.674717l8.276772,-21.14398c-4.934229,-0.186605 -8.149435,-3.890032 -18.478491,-3.890032l0.000003,0zm1.829442,16.966862c-4.186137,0 -8.451859,-2.411533 -8.451859,-3.258444s2.658119,-4.307203 9.088534,-4.579042c6.080247,-0.229668 8.420026,3.789551 8.420026,5.224096c0,1.436331 -4.88648,2.61339 -9.0567,2.61339l-0.000002,0z"/>
   <path stroke="null" id="svg_47" d="m32.041672,21.50189l-0.397921,0l-8.275778,21.143976c2.768538,-1.794296 5.491322,-3.53117 8.673698,-3.53117l0,-17.612806z" class="cls-1"/>
  </g>
 </g>
</svg>