<svg width="64" height="64" xmlns="http://www.w3.org/2000/svg">
 <style>.st1{fill:#ffd5b2}</style>

 <g>
  <title>background</title>
  <rect fill="none" id="canvas_background" height="621" width="1182" y="-1" x="-1"/>
 </g>
 <g>
  <title>Layer 1</title>
  <defs>
   <style>.cls-1{fill:#ab71ff}.cls-2{fill:#7542e5}.cls-3{fill:#592acb}</style>
  </defs>
  <g stroke="null" id="svg_33">
   <path stroke="null" id="svg_32" fill="#7542e5" d="m62.508781,55.394009l-0.19006,-0.188347l-17.743855,-17.284054c10.875198,-15.068735 1.034672,-36.031028 -17.711329,-37.731131c-18.749059,-1.700103 -32.343059,17.135569 -24.47124,33.905401c6.061653,12.913208 22.185408,17.852081 34.665459,10.615181l17.953232,17.584007c2.709652,2.801277 7.495762,1.676189 8.61377,-2.02597a5.111344,5.011617 0 0 0 -1.192207,-4.875088l0.076229,0zm-22.149834,-31.314394c0.011181,8.536398 -7.034325,15.468351 -15.738556,15.488287c-12.350967,0.216251 -20.307148,-12.757751 -14.32274,-23.351013c5.984412,-10.594252 21.422116,-10.864313 27.785634,-0.485312a16.051594,15.738411 0 0 1 2.294971,7.93747l0,0.410574l-0.01931,-0.000006z"/>
  </g>
 </g>
</svg>