<?xml version="1.0" encoding="utf-8"?>
<svg width="3031px" height="610px" viewBox="0 0 3031 610" version="1.1" xmlns:xlink="http://www.w3.org/1999/xlink" xmlns="http://www.w3.org/2000/svg">
  <defs>
    <linearGradient x1="0" y1="0.46351188" x2="1" y2="0.45351374" id="gradient_1">
      <stop offset="0" stop-color="#1CDCA2" />
      <stop offset="1" stop-color="#16CACA" />
    </linearGradient>
    <filter filterUnits="userSpaceOnUse" color-interpolation-filters="sRGB" id="filter_1">
      <feFlood flood-opacity="0" result="BackgroundImageFix" />
      <feColorMatrix in="SourceAlpha" type="matrix" values="0 0 0 0 0 0 0 0 0 0 0 0 0 0 0 0 0 0 127 0" />
      <feOffset dx="-25" dy="-25" />
      <feGaussianBlur stdDeviation="16.5" />
      <feColorMatrix type="matrix" values="0 0 0 0 0.39215687 0 0 0 0 0.39215687 0 0 0 0 0.39215687 0 0 0 0.2 0" />
      <feBlend mode="normal" in2="BackgroundImageFix" result="effect0_dropShadow" />
      <feBlend mode="normal" in="SourceGraphic" in2="effect0_dropShadow" result="shape" />
    </filter>
    <filter filterUnits="userSpaceOnUse" color-interpolation-filters="sRGB" id="filter_2">
      <feFlood flood-opacity="0" result="BackgroundImageFix" />
      <feColorMatrix in="SourceAlpha" type="matrix" values="0 0 0 0 0 0 0 0 0 0 0 0 0 0 0 0 0 0 127 0" />
      <feOffset dx="0" dy="0" />
      <feGaussianBlur stdDeviation="12.5" />
      <feColorMatrix type="matrix" values="0 0 0 0 0.39215687 0 0 0 0 0.39215687 0 0 0 0 0.39215687 0 0 0 0.23921569 0" />
      <feBlend mode="normal" in2="BackgroundImageFix" result="effect0_dropShadow" />
      <feBlend mode="normal" in="SourceGraphic" in2="effect0_dropShadow" result="shape" />
    </filter>
  </defs>
  <g id="Group-6">
    <g id="Group-5" transform="translate(752.9219 176.87256)">
      <path d="M153.455 122.486C174.683 112.554 187.957 90.9342 187.21 67.5095C187.21 26.4515 155.892 0 108.567 0L0 0L0 253.991L112.049 253.991C160.062 253.991 192.424 226.852 192.424 182.312C193.677 156.058 177.975 131.952 153.455 122.486L153.455 122.486ZM28.8801 26.4517L108.234 26.4517C139.196 26.4517 158.336 43.155 158.336 67.5096C158.336 91.8643 141.641 109.96 110.671 109.96L28.8799 109.96L28.8801 26.4517ZM111.701 227.225L28.8809 227.225L28.8809 136.753L110.308 136.753C145.123 136.753 163.203 155.197 163.203 181.989C163.203 208.433 143.05 227.225 111.701 227.225L111.701 227.225ZM254.378 101.606L254.378 66.1186L226.922 66.1186L226.922 254.017L255.114 254.017L255.114 151.02C255.114 109.614 273.202 91.5177 304.52 91.5177C312.583 91.1976 320.563 93.2558 327.466 97.4363L339.335 70.2964C329.697 65.2402 318.889 62.8371 308.017 63.3334C283.308 61.7021 260.873 77.7104 254.378 101.606L254.378 101.606ZM438.107 62.2871C384.108 62.2871 340.333 106.061 340.332 160.059C340.33 214.058 384.103 257.834 438.101 257.837C492.099 257.84 535.877 214.069 535.881 160.07C536.236 134.031 526.049 108.954 507.636 90.5387C489.222 72.1235 464.146 61.9344 438.107 62.2871L438.107 62.2871ZM438.108 230.705C419.521 230.839 401.688 223.371 388.744 210.032C375.8 196.694 368.87 178.644 369.562 160.07C368.754 134.99 381.674 111.462 403.269 98.6829C424.865 85.9039 451.707 85.9039 473.302 98.6827C494.898 111.462 507.817 134.99 507.01 160.07C507.625 178.684 500.621 196.744 487.616 210.076C474.611 223.407 456.731 230.858 438.107 230.705L438.108 230.705ZM764.894 213.995L708.841 66.1187L682.398 66.1187L624.985 215.04L577.66 66.1187L547.735 66.1187L609.326 254.017L637.162 254.017L694.923 105.096L752.684 254.017L778.424 254.017L843.496 66.1187L813.919 66.1187L764.894 213.995ZM944.104 145.449C914.875 139.538 892.253 135.709 892.253 116.228C892.253 98.8205 904.122 86.3029 932.971 86.3029C953.248 85.5126 972.577 94.9143 984.473 111.354L1008.13 95.3469C989.841 72.8562 961.913 60.4475 932.963 61.9482C888.423 61.6001 863.024 87.3394 863.024 116.545C863.024 154.121 897.467 162.817 929.829 169.076C957.317 174.654 983.065 178.824 983.065 199.705C983.065 218.497 967.754 232.407 938.525 232.407C914.392 233.431 891.462 221.833 877.987 201.786L853.276 218.497C869.979 242.504 896.795 257.806 937.829 257.806C986.887 258.155 1011.95 228.934 1011.95 199.357C1011.93 160.767 976.442 151.716 944.08 145.449L944.104 145.449ZM1133.41 62.2874C1107.18 61.8072 1081.89 72.0405 1063.37 90.6249C1044.86 109.209 1034.72 134.539 1035.29 160.766C1035.29 215.743 1074.26 257.837 1134.46 257.837C1170.15 259.332 1203.75 240.996 1221.8 210.172L1197.45 195.93C1185.35 219.282 1160.73 233.423 1134.46 232.114C1094.8 232.114 1067.3 206.714 1063.13 170.879L1229.11 170.879L1229.11 157.973C1229.96 132.34 1220.14 107.502 1202 89.3699C1183.86 71.238 1159.02 61.4328 1133.39 62.2874L1133.41 62.2874ZM1063.78 145.797C1069.53 111.932 1099.06 87.2848 1133.41 87.6875C1167.65 85.8618 1197.11 111.624 1199.88 145.797L1063.78 145.797ZM1344.25 63.3321C1319.56 61.725 1297.16 77.7288 1290.67 101.605L1290.67 66.1173L1263.17 66.1173L1263.17 254.016L1291.37 254.016L1291.37 151.019C1291.37 109.612 1309.45 91.5165 1340.77 91.5165C1348.84 91.1964 1356.82 93.2546 1363.72 97.435L1375.59 70.2951C1365.95 65.2375 1355.14 62.8343 1344.27 63.3321L1344.25 63.3321Z" transform="translate(902.491 0)" id="Shape" fill="#FFFFFF" fill-rule="evenodd" stroke="none" />
      <path d="M792.88 194.14C789.48 197.54 782.68 199.92 775.88 199.92C766.7 199.92 759.22 191.76 759.22 180.2L759.22 102L797.3 102L797.3 61.8801L759.22 61.8801L759.22 13.6001L711.62 13.6001L711.62 61.8801L687.48 61.8801L687.48 102L711.62 102L711.62 188.02C711.62 219.64 733.38 241.74 764.32 241.74C778.6 241.74 794.58 235.62 804.78 226.44L792.88 194.14ZM611.66 94.5201L611.66 61.8801L562.02 61.8801L562.02 237.66L611.66 237.66L611.66 153.68C611.66 120.7 635.12 99.6201 671.84 99.6201L671.84 57.8C644.98 57.8 623.22 71.7401 611.66 94.5201L611.66 94.5201ZM443.02 57.8C418.54 57.8 394.4 64.6001 369.58 77.1801L386.24 110.16C400.18 103.02 415.48 97.58 431.8 97.58C460.7 97.58 472.26 113.9 472.26 132.6L472.26 136C457.3 130.22 441.66 127.16 427.38 127.16C386.58 127.16 354.28 150.96 354.28 185.64C354.28 219.3 383.18 241.74 420.58 241.74C439.62 241.74 459.68 234.26 472.26 219.98L472.26 237.66L520.2 237.66L520.2 132.6C520.2 86.7001 488.92 57.8 443.02 57.8L443.02 57.8ZM431.8 207.4C414.8 207.4 402.22 198.56 402.22 184.28C402.22 170 416.5 159.46 434.52 159.46C448.12 159.46 461.04 161.84 472.26 165.92L472.26 182.24C468.86 198.56 450.84 207.4 431.8 207.4L431.8 207.4ZM321.64 194.14C318.24 197.54 311.44 199.92 304.64 199.92C295.46 199.92 287.98 191.76 287.98 180.2L287.98 102L326.06 102L326.06 61.8801L287.98 61.8801L287.98 13.6001L240.38 13.6001L240.38 61.8801L216.24 61.8801L216.24 102L240.38 102L240.38 188.02C240.38 219.64 262.14 241.74 293.08 241.74C307.36 241.74 323.34 235.62 333.54 226.44L321.64 194.14ZM103.7 241.74C160.82 241.74 194.48 212.16 194.48 167.62C194.48 124.44 161.16 109.48 110.84 98.26C74.8 90.1 60.86 84.66 60.86 67.66C60.86 53.72 73.78 42.5 95.2 42.5C117.64 42.5 141.1 51.68 161.84 68.34L188.02 32.3C164.22 11.9 134.64 0 96.56 0C45.56 0 10.2 29.58 10.2 72.76C10.2 117.98 45.22 131.92 94.52 143.14C130.22 151.3 143.82 156.4 143.82 173.06C143.82 187.68 130.9 199.24 105.74 199.24C76.16 199.24 51 187.68 28.9 168.64L0 202.98C27.2 228.14 63.24 241.74 103.7 241.74L103.7 241.74Z" transform="translate(0 7.5007324)" id="Start" fill="#FFFFFF" stroke="none" />
    </g>
    <g id="Group-4">
      <g id="编组-18">
        <path d="M0 305C0 136.553 136.553 0 305 0C473.447 0 610 136.553 610 305C610 473.447 473.447 610 305 610C136.553 610 0 473.447 0 305Z" id="椭圆" fill="url(#gradient_1)" fill-rule="evenodd" stroke="none" />
        <g id="编组-9" transform="translate(76.12549 76.09473)">
          <path d="M0 152.5C0 68.2766 68.2766 0 152.5 0C236.723 0 305 68.2766 305 152.5C305 236.723 236.723 305 152.5 305C68.2766 305 0 236.723 0 152.5Z" transform="translate(76.37451 76.40527)" id="椭圆-2" fill="#FFFFFF" fill-opacity="0.49803922" fill-rule="evenodd" stroke="none" filter="url(#filter_1)" />
          <path d="M68.5408 125.91L101.086 0L101.309 0L134.495 125.806C174.538 139.458 203.339 177.396 203.339 222.06C203.339 266.969 174.221 305.077 133.835 318.536L99.3835 444.085L99.0878 444.085L67.8824 317.98C28.3406 304.052 -3.05176e-05 266.366 -3.05176e-05 222.06C-3.05176e-05 177.508 28.6555 139.65 68.5408 125.91Z" transform="matrix(0.70710677 0.70710677 -0.70710677 0.70710677 314.01587 0)" id="椭圆-3-Union" fill="#FFFFFF" fill-rule="evenodd" stroke="none" filter="url(#filter_2)" />
          <path d="M0 29.89C0 13.3822 13.3822 0 29.89 0C46.3978 0 59.78 13.3822 59.78 29.89C59.78 46.3978 46.3978 59.78 29.89 59.78C13.3822 59.78 0 46.3978 0 29.89Z" transform="translate(199.59448 199.62524)" id="Ellipse" fill="#10E2C1" fill-rule="evenodd" stroke="none" />
        </g>
      </g>
      <g id="Group-2" transform="translate(257.42004 82.95996)" />
    </g>
  </g>
</svg>