<svg width="152" height="45" xmlns="http://www.w3.org/2000/svg" xml:space="preserve" enable-background="new 0 0 152 45" version="1.1">

 <g>
  <title>background</title>
  <rect fill="none" id="canvas_background" height="615" width="1182" y="-1" x="-1"/>
 </g>
 <g>
  <title>Layer 1</title>
  <path id="svg_1" d="m151.625,39.473c0,2.775002 -2.257996,5.027 -5.042999,5.027l-140.915001,0c-2.785,0 -5.043,-2.250999 -5.043,-5.027l0,-33.945c0.001,-2.777 2.259,-5.028 5.043,-5.028l140.914986,0c2.785004,0 5.042999,2.251 5.042999,5.028l0,33.945l0.000015,0z" stroke-miterlimit="10" stroke="#858585"/>
  <g id="svg_3">
   <path id="svg_11" d="m127.404076,13.495c0,0.345 0,0.690001 -0.015999,1.05l2.984924,0l0,6.539999l-1.259964,0l0,-5.294999l-1.770958,0c-0.104004,1.95 -0.420006,3.915 -1.274002,5.37c-0.225998,-0.254999 -0.690002,-0.674999 -1.004997,-0.855c0.944,-1.860001 1.063995,-4.605 1.063995,-6.795l0,-5.834l1.275002,0l0,3.689l1.363976,0l0,-4.05l1.259964,0l0,4.05l1.185989,0l0,1.23l-3.809929,0l0,0.9l0.001999,0zm11.173927,-1.755c-0.330002,2.595 -1.020004,4.65 -2.024002,6.24c0.675003,0.870001 1.483994,1.560001 2.444,2.055c-0.313995,0.24 -0.733994,0.75 -0.944,1.125c-0.899994,-0.525 -1.664993,-1.215 -2.311005,-2.07c-0.75,0.869999 -1.589996,1.545 -2.563995,2.07c-0.180008,-0.360001 -0.539993,-0.885 -0.824997,-1.139999c0.98999,-0.465 1.860001,-1.185001 2.610001,-2.145c-0.794998,-1.424999 -1.365005,-3.135 -1.755005,-5.04l-0.091003,0l0,0.525c0,2.52 -0.179993,5.7 -1.470001,7.86c-0.25499,-0.24 -0.778992,-0.615 -1.108994,-0.795c1.108994,-1.949999 1.244003,-4.889999 1.244003,-7.063999l0,-5.07c2.175995,-0.150001 4.649994,-0.465 6.194992,-0.84l0.839996,1.2c-1.603989,0.36 -3.733994,0.615 -5.699997,0.765l0,2.16l4.396011,0l0.23999,-0.045l0.824005,0.209zm-4.274002,1.095c0.330002,1.425 0.794998,2.745 1.425003,3.900001c0.62999,-1.110001 1.095001,-2.415001 1.394989,-3.900001l-2.819992,0z" fill="#FFFFFF"/>
   <path id="svg_12" d="m63.775002,27.836l0,2.52l0.239998,-0.285002c1.694,0.825001 4.064003,2.174999 5.220001,3.09l-1.004997,1.290001c-0.960007,-0.825001 -2.835007,-2.009998 -4.455002,-2.91l0,7.514999l-1.484001,0l0,-11.219999l-5.564999,0l0,-1.41l13.244999,0l0,1.41l-6.195999,0z" fill="#FFFFFF"/>
   <path id="svg_13" d="m84.489998,30.82c-0.540001,1.845001 -1.275002,3.57 -2.220001,5.069c0.359001,1.096001 0.840004,1.740002 1.365005,1.740002c0.313995,0 0.478996,-0.645 0.555,-2.295002c0.284996,0.299999 0.734001,0.601002 1.079994,0.720001c-0.209999,2.265999 -0.629997,2.91 -1.754997,2.91c-0.931,0 -1.635002,-0.66 -2.159996,-1.785c-0.600006,0.765999 -1.275002,1.425999 -2.010002,1.994999c-0.209999,-0.313999 -0.614998,-0.720001 -0.959999,-0.974998c0.93,-0.646 1.738998,-1.485001 2.444,-2.460003c-0.465004,-1.605 -0.720001,-3.674999 -0.854004,-5.999998l-5.324997,0l1.169998,0.33c-0.135002,0.33 -0.284996,0.66 -0.448997,1.004999l4.124001,0l0,1.109999l-4.694,0c-0.285004,0.524002 -0.584999,1.035004 -0.900002,1.470001l1.799995,0l0,-1.063999l1.306007,0l0,1.064999l2.233994,0l-0.014999,1.155003l-2.220001,0l0,1.169998l2.534004,-0.209999l0,1.125c-0.840004,0.09 -1.694,0.18 -2.534004,0.255001l0,1.903999l-1.306,0l0,-1.77l-3.749001,0.360001l-0.135994,-1.275002c1.050995,-0.060001 2.399994,-0.165001 3.884995,-0.285l0,-1.273998l-1.874001,0c-0.600998,0 -1.079994,0.09 -1.215996,0.238998c-0.073997,-0.284 -0.270004,-0.915001 -0.434998,-1.243999c0.269997,-0.061001 0.478996,-0.346001 0.735001,-0.75c0.103996,-0.150002 0.283997,-0.466 0.493996,-0.869999l-1.528999,0l0,-1.110001l2.055,0c0.18,-0.435001 0.345001,-0.885 0.495003,-1.335001l-2.760002,0l0,-1.108999l3.434998,0l0,-1.08l-2.684998,0l0,-1.096001l2.684998,0l0,-1.108999l1.334999,0l0,1.108999l2.565002,0l0,1.096001l-2.564003,0l0,1.08l3.479004,0c-0.028999,-1.051001 -0.059998,-2.16 -0.059998,-3.285l1.379997,0c-0.014999,1.139999 -0.014999,2.25 0.029999,3.285l3.794998,0l0,1.108999l-3.75,0c0.104004,1.665001 0.285004,3.164999 0.510002,4.379999c0.599998,-1.125 1.080002,-2.353998 1.425003,-3.66l1.244995,0.360001zm-0.884995,-2.58c-0.360001,-0.555 -1.125,-1.41 -1.771004,-2.024l1.004997,-0.646c0.660004,0.556 1.455002,1.396 1.815002,1.950001l-1.048996,0.719999z" fill="#FFFFFF"/>
   <text transform="matrix(0.685517 0 0 0.654174 30.6412 -2.04929)" stroke="null" xml:space="preserve" text-anchor="start" font-family="Oswald, sans-serif" font-size="24" id="svg_23" y="32.764013" x="35.990352" fill-opacity="null" stroke-opacity="null" stroke-width="0" fill="#ffffff">Windows</text>
  </g>
  <g stroke="null" id="svg_18">
   <path stroke="null" id="svg_17" fill="#0481ec" p-id="11152" d="m27.305977,8.336254l0,13.545719l-13.478453,0l0,-13.545719l13.478453,0zm0,28.685051l-13.478453,0l0,-13.545721l13.478453,0l0,13.545721zm1.585699,-28.685051l13.478456,0l0,13.545719l-13.478456,0l0,-13.545719zm13.478456,15.13933l0,13.545721l-13.478456,0l0,-13.545721l13.478456,0z"/>
  </g>
 </g>
</svg>