<?xml version="1.0" encoding="utf-8"?>
<!-- Generator: Adobe Illustrator 16.0.0, SVG Export Plug-In . SVG Version: 6.00 Build 0)  -->
<!DOCTYPE svg PUBLIC "-//W3C//DTD SVG 1.1//EN" "http://www.w3.org/Graphics/SVG/1.1/DTD/svg11.dtd">
<svg version="1.1" id="图层_1" xmlns="http://www.w3.org/2000/svg" xmlns:xlink="http://www.w3.org/1999/xlink" x="0px" y="0px"
	 width="152px" height="45px" viewBox="0 0 152 45" enable-background="new 0 0 152 45" xml:space="preserve">
<path stroke="#858585" stroke-miterlimit="10" d="M151.5,39.473c0,2.775-2.258,5.027-5.043,5.027H5.542
	c-2.785,0-5.043-2.251-5.043-5.027V5.528C0.5,2.751,2.758,0.5,5.542,0.5h140.915c2.785,0,5.043,2.251,5.043,5.028V39.473z"/>
<path fill="#79C257" d="M36.039,16.79l2.647-4.775c0.143-0.257,0.049-0.583-0.208-0.725c-0.082-0.046-0.17-0.067-0.258-0.067
	c-0.188,0-0.37,0.099-0.467,0.275l-2.676,4.828c-2.192-0.973-4.648-1.518-7.243-1.518c-2.595,0-5.051,0.545-7.243,1.518
	l-2.676-4.828c-0.143-0.257-0.468-0.351-0.725-0.208c-0.257,0.142-0.351,0.468-0.208,0.725l2.647,4.775
	c-5.086,2.646-8.523,7.676-8.53,13.448h33.472C44.562,24.466,41.125,19.437,36.039,16.79 M20.109,24.114
	c-0.771,0-1.398-0.628-1.398-1.398c0-0.771,0.627-1.398,1.398-1.398s1.397,0.627,1.397,1.398
	C21.506,23.486,20.88,24.114,20.109,24.114 M35.558,24.114c-0.771,0-1.397-0.628-1.397-1.398c0-0.771,0.627-1.398,1.397-1.398
	c0.771,0,1.398,0.627,1.398,1.398C36.956,23.486,36.329,24.114,35.558,24.114"/>
<g>
	<path fill="#FFFFFF" d="M55.814,19.915l4.88-12.707h1.813l5.2,12.707h-1.916l-1.481-3.849h-5.313l-1.396,3.849H55.814z
		 M59.481,14.697h4.308l-1.326-3.519c-0.404-1.069-0.705-1.947-0.901-2.635c-0.162,0.814-0.39,1.624-0.685,2.427L59.481,14.697z"/>
	<path fill="#FFFFFF" d="M68.851,19.915V10.71h1.404v1.309c0.676-1.011,1.652-1.517,2.93-1.517c0.555,0,1.064,0.1,1.53,0.299
		c0.465,0.199,0.813,0.461,1.044,0.785c0.231,0.324,0.394,0.708,0.485,1.153c0.058,0.289,0.087,0.794,0.087,1.517v5.66h-1.561v-5.6
		c0-0.635-0.061-1.111-0.182-1.426s-0.337-0.566-0.646-0.754c-0.31-0.188-0.672-0.282-1.088-0.282c-0.665,0-1.238,0.211-1.721,0.633
		s-0.724,1.222-0.724,2.401v5.027H68.851z"/>
	<path fill="#FFFFFF" d="M84.696,19.915v-1.162c-0.584,0.913-1.442,1.37-2.574,1.37c-0.734,0-1.409-0.202-2.024-0.607
		c-0.615-0.404-1.092-0.969-1.43-1.694c-0.339-0.725-0.508-1.559-0.508-2.5c0-0.919,0.153-1.752,0.46-2.501
		c0.306-0.748,0.766-1.322,1.378-1.72c0.612-0.399,1.297-0.598,2.055-0.598c0.555,0,1.049,0.117,1.481,0.351
		c0.434,0.234,0.786,0.539,1.058,0.914V7.208h1.552v12.707H84.696z M79.764,15.321c0,1.179,0.249,2.06,0.746,2.644
		c0.496,0.583,1.083,0.875,1.759,0.875c0.683,0,1.262-0.279,1.738-0.836s0.715-1.409,0.715-2.553c0-1.26-0.242-2.185-0.728-2.774
		s-1.084-0.884-1.795-0.884c-0.693,0-1.272,0.283-1.737,0.849C79.996,13.209,79.764,14.102,79.764,15.321z"/>
	<path fill="#FFFFFF" d="M88.579,19.915V10.71h1.404v1.396c0.358-0.653,0.689-1.083,0.993-1.292
		c0.303-0.208,0.637-0.312,1.001-0.312c0.525,0,1.061,0.167,1.604,0.502l-0.537,1.448c-0.382-0.226-0.764-0.338-1.145-0.338
		c-0.341,0-0.647,0.103-0.919,0.308s-0.465,0.49-0.581,0.854c-0.173,0.555-0.26,1.162-0.26,1.82v4.819H88.579z"/>
	<path fill="#FFFFFF" d="M93.928,15.313c0-1.705,0.474-2.967,1.421-3.788c0.792-0.682,1.757-1.022,2.896-1.022
		c1.266,0,2.3,0.415,3.103,1.244c0.804,0.829,1.205,1.975,1.205,3.437c0,1.185-0.178,2.116-0.533,2.795
		c-0.355,0.679-0.872,1.207-1.552,1.582c-0.679,0.375-1.42,0.563-2.223,0.563c-1.289,0-2.33-0.413-3.125-1.239
		C94.324,18.057,93.928,16.867,93.928,15.313z M95.531,15.313c0,1.179,0.257,2.062,0.771,2.648c0.514,0.586,1.161,0.88,1.941,0.88
		c0.774,0,1.418-0.295,1.933-0.884s0.771-1.488,0.771-2.696c0-1.138-0.259-2-0.775-2.587c-0.518-0.586-1.16-0.879-1.929-0.879
		c-0.78,0-1.428,0.292-1.941,0.875C95.788,13.252,95.531,14.134,95.531,15.313z"/>
	<path fill="#FFFFFF" d="M104.389,9.002V7.208h1.561v1.794H104.389z M104.389,19.915V10.71h1.561v9.205H104.389z"/>
	<path fill="#FFFFFF" d="M114.297,19.915v-1.162c-0.584,0.913-1.442,1.37-2.574,1.37c-0.734,0-1.409-0.202-2.024-0.607
		c-0.615-0.404-1.092-0.969-1.43-1.694c-0.339-0.725-0.508-1.559-0.508-2.5c0-0.919,0.153-1.752,0.46-2.501
		c0.306-0.748,0.766-1.322,1.378-1.72c0.612-0.399,1.297-0.598,2.055-0.598c0.555,0,1.049,0.117,1.481,0.351
		c0.434,0.234,0.786,0.539,1.058,0.914V7.208h1.552v12.707H114.297z M109.364,15.321c0,1.179,0.249,2.06,0.746,2.644
		c0.496,0.583,1.083,0.875,1.759,0.875c0.683,0,1.262-0.279,1.738-0.836s0.715-1.409,0.715-2.553c0-1.26-0.242-2.185-0.728-2.774
		s-1.084-0.884-1.795-0.884c-0.693,0-1.272,0.283-1.737,0.849C109.597,13.209,109.364,14.102,109.364,15.321z"/>
	<path fill="#FFFFFF" d="M124.779,13.495c0,0.345,0,0.69-0.016,1.05h2.985v6.54h-1.26V15.79h-1.771
		c-0.104,1.95-0.42,3.915-1.274,5.37c-0.226-0.255-0.69-0.675-1.005-0.855c0.944-1.86,1.064-4.605,1.064-6.795V7.676h1.275v3.689
		h1.364v-4.05h1.26v4.05h1.186v1.23h-3.81V13.495z M135.953,11.74c-0.33,2.595-1.02,4.65-2.024,6.24
		c0.675,0.87,1.484,1.56,2.444,2.055c-0.314,0.24-0.734,0.75-0.944,1.125c-0.9-0.525-1.665-1.215-2.311-2.07
		c-0.75,0.87-1.59,1.545-2.564,2.07c-0.18-0.36-0.54-0.885-0.825-1.14c0.99-0.465,1.86-1.185,2.61-2.145
		c-0.795-1.425-1.365-3.135-1.755-5.04h-0.091v0.525c0,2.52-0.18,5.7-1.47,7.86c-0.255-0.24-0.779-0.615-1.109-0.795
		c1.109-1.95,1.244-4.89,1.244-7.064v-5.07c2.176-0.15,4.65-0.465,6.195-0.84l0.84,1.2c-1.604,0.36-3.734,0.615-5.7,0.765v2.16
		h4.396l0.24-0.045L135.953,11.74z M131.679,12.835c0.33,1.425,0.795,2.745,1.425,3.9c0.63-1.11,1.095-2.415,1.395-3.9H131.679z"/>
	<path fill="#FFFFFF" d="M63.775,27.836v2.52l0.24-0.285c1.694,0.825,4.064,2.175,5.22,3.09l-1.005,1.29
		c-0.96-0.825-2.835-2.01-4.455-2.91v7.515h-1.484V27.836h-5.565v-1.41h13.245v1.41H63.775z"/>
	<path fill="#FFFFFF" d="M84.49,30.82c-0.54,1.845-1.275,3.57-2.22,5.069c0.359,1.096,0.84,1.74,1.365,1.74
		c0.314,0,0.479-0.645,0.555-2.295c0.285,0.3,0.734,0.601,1.08,0.72c-0.21,2.266-0.63,2.91-1.755,2.91
		c-0.931,0-1.635-0.66-2.16-1.785c-0.6,0.766-1.275,1.426-2.01,1.995c-0.21-0.314-0.615-0.72-0.96-0.975
		c0.93-0.646,1.739-1.485,2.444-2.46c-0.465-1.605-0.72-3.675-0.854-6H74.65l1.17,0.33c-0.135,0.33-0.285,0.66-0.449,1.005h4.124
		v1.11h-4.694c-0.285,0.524-0.585,1.035-0.9,1.47h1.8V32.59h1.306v1.065h2.234l-0.015,1.155h-2.22v1.17l2.534-0.21v1.125
		c-0.84,0.09-1.694,0.18-2.534,0.255v1.904H75.7v-1.77l-3.749,0.36l-0.136-1.275c1.051-0.06,2.4-0.165,3.885-0.285v-1.274h-1.874
		c-0.601,0-1.08,0.09-1.216,0.239c-0.074-0.284-0.27-0.915-0.435-1.244c0.27-0.061,0.479-0.346,0.735-0.75
		c0.104-0.15,0.284-0.466,0.494-0.87h-1.529v-1.11h2.055c0.18-0.435,0.345-0.885,0.495-1.335h-2.76v-1.109h3.435v-1.08h-2.685
		v-1.096h2.685v-1.109h1.335v1.109H79v1.096h-2.564v1.08h3.479c-0.029-1.051-0.06-2.16-0.06-3.285h1.38
		c-0.015,1.14-0.015,2.25,0.03,3.285h3.795v1.109h-3.75c0.104,1.665,0.285,3.165,0.51,4.38c0.6-1.125,1.08-2.354,1.425-3.66
		L84.49,30.82z M83.605,28.24c-0.36-0.555-1.125-1.41-1.771-2.024l1.005-0.646c0.66,0.556,1.455,1.396,1.815,1.95L83.605,28.24z"/>
</g>
</svg>
